<svg xmlns="http://www.w3.org/2000/svg" xmlns:xlink="http://www.w3.org/1999/xlink" width="500" zoomAndPan="magnify" viewBox="0 0 375 374.999991" height="500" preserveAspectRatio="xMidYMid meet" version="1.0"><defs><g/><clipPath id="id1"><path d="M 98.105469 61 L 276.605469 61 L 276.605469 128 L 98.105469 128 Z M 98.105469 61 " clip-rule="nonzero"/></clipPath><clipPath id="id2"><path d="M 213 14.792969 L 229 14.792969 L 229 31 L 213 31 Z M 213 14.792969 " clip-rule="nonzero"/></clipPath></defs><g clip-path="url(#id1)"><path fill="#005162" d="M 276.613281 94.558594 C 276.613281 103.71875 267 112.101562 249.546875 118.160156 C 232.898438 123.933594 210.8125 127.117188 187.355469 127.117188 C 163.902344 127.117188 141.816406 123.9375 125.167969 118.160156 C 107.714844 112.101562 98.101562 103.722656 98.101562 94.558594 C 98.101562 85.394531 107.714844 77.011719 125.167969 70.957031 C 141.816406 65.179688 163.902344 61.996094 187.355469 61.996094 C 210.8125 61.996094 232.898438 65.179688 249.546875 70.957031 C 267 77.011719 276.613281 85.394531 276.613281 94.558594 Z M 102.96875 94.558594 C 102.96875 107.929688 136.878906 122.25 187.355469 122.25 C 237.835938 122.25 271.746094 107.929688 271.746094 94.558594 C 271.746094 81.183594 237.835938 66.863281 187.355469 66.863281 C 136.878906 66.863281 102.96875 81.183594 102.96875 94.558594 Z M 102.96875 94.558594 " fill-opacity="1" fill-rule="nonzero"/></g><path fill="#005162" d="M 244.496094 150.867188 C 244.496094 150.867188 244.496094 150.867188 244.496094 150.871094 C 244.496094 159.226562 242.039062 165.308594 237.394531 168.453125 C 229.804688 173.589844 217.472656 170.332031 202.671875 159.277344 C 188.554688 148.730469 173.539062 132.230469 160.390625 112.808594 C 141.777344 85.324219 130.214844 56.75 130.214844 38.246094 C 130.214844 29.886719 132.671875 23.808594 137.320312 20.660156 C 144.910156 15.523438 157.238281 18.78125 172.039062 29.835938 C 186.15625 40.382812 201.175781 56.886719 214.324219 76.304688 C 232.933594 103.789062 244.496094 132.359375 244.496094 150.867188 Z M 135.082031 38.246094 C 135.082031 55.832031 146.324219 83.359375 164.421875 110.082031 C 192.71875 151.875 223.585938 171.921875 234.664062 164.425781 C 238.769531 161.648438 239.628906 155.519531 239.628906 150.871094 C 239.628906 150.867188 239.628906 150.867188 239.628906 150.867188 C 239.628906 133.28125 228.390625 105.757812 210.292969 79.035156 C 197.441406 60.050781 182.820312 43.964844 169.128906 33.738281 C 156.304688 24.160156 145.707031 20.863281 140.046875 24.691406 C 135.945312 27.46875 135.082031 33.59375 135.082031 38.246094 Z M 135.082031 38.246094 " fill-opacity="1" fill-rule="nonzero"/><path fill="#005162" d="M 244.480469 38.316406 C 244.480469 43.472656 243.582031 49.511719 241.769531 56.300781 C 237.21875 73.320312 227.472656 93.390625 214.324219 112.808594 C 208.101562 122 201.441406 130.566406 194.539062 138.261719 C 193.640625 139.261719 192.101562 139.347656 191.101562 138.449219 C 190.101562 137.550781 190.019531 136.011719 190.914062 135.011719 C 197.671875 127.480469 204.195312 119.09375 210.292969 110.082031 C 223.148438 91.101562 232.65625 71.554688 237.066406 55.042969 C 241.199219 39.585938 240.324219 28.519531 234.667969 24.691406 C 229.007812 20.863281 218.410156 24.160156 205.585938 33.738281 C 191.894531 43.964844 177.273438 60.050781 164.421875 79.035156 C 136.121094 120.824219 128.972656 156.929688 140.050781 164.425781 C 145.023438 167.792969 153.761719 165.695312 164.652344 158.527344 C 165.777344 157.789062 167.285156 158.097656 168.023438 159.222656 C 168.765625 160.34375 168.453125 161.851562 167.332031 162.589844 C 154.503906 171.035156 144.125 173.0625 137.320312 168.457031 C 129.730469 163.320312 128.179688 150.660156 132.945312 132.816406 C 137.496094 115.792969 147.242188 95.726562 160.390625 76.308594 C 173.539062 56.886719 188.554688 40.382812 202.675781 29.839844 C 217.476562 18.785156 229.804688 15.527344 237.394531 20.664062 C 242.097656 23.84375 244.480469 29.914062 244.480469 38.316406 Z M 244.480469 38.316406 " fill-opacity="1" fill-rule="nonzero"/><path fill="#5ce1e6" d="M 187.355469 73.429688 C 188.046875 73.429688 188.738281 73.464844 189.429688 73.53125 C 190.117188 73.597656 190.800781 73.699219 191.480469 73.835938 C 192.15625 73.972656 192.828125 74.140625 193.492188 74.339844 C 194.152344 74.539062 194.804688 74.773438 195.441406 75.039062 C 196.082031 75.304688 196.707031 75.597656 197.316406 75.925781 C 197.929688 76.25 198.519531 76.605469 199.097656 76.992188 C 199.671875 77.375 200.226562 77.785156 200.761719 78.226562 C 201.296875 78.664062 201.808594 79.128906 202.296875 79.617188 C 202.789062 80.105469 203.253906 80.621094 203.691406 81.152344 C 204.128906 81.6875 204.542969 82.242188 204.925781 82.820312 C 205.3125 83.394531 205.667969 83.988281 205.992188 84.597656 C 206.320312 85.207031 206.613281 85.832031 206.878906 86.472656 C 207.144531 87.109375 207.375 87.761719 207.578125 88.425781 C 207.777344 89.085938 207.945312 89.757812 208.082031 90.433594 C 208.214844 91.113281 208.316406 91.796875 208.386719 92.484375 C 208.453125 93.175781 208.488281 93.863281 208.488281 94.558594 C 208.488281 95.25 208.453125 95.9375 208.386719 96.628906 C 208.316406 97.316406 208.214844 98 208.082031 98.679688 C 207.945312 99.355469 207.777344 100.027344 207.578125 100.691406 C 207.375 101.351562 207.144531 102.003906 206.878906 102.640625 C 206.613281 103.28125 206.320312 103.90625 205.992188 104.515625 C 205.667969 105.125 205.3125 105.71875 204.925781 106.292969 C 204.542969 106.871094 204.128906 107.425781 203.691406 107.960938 C 203.253906 108.496094 202.789062 109.007812 202.296875 109.496094 C 201.808594 109.984375 201.296875 110.449219 200.761719 110.886719 C 200.226562 111.328125 199.671875 111.738281 199.097656 112.125 C 198.519531 112.507812 197.929688 112.863281 197.316406 113.1875 C 196.707031 113.515625 196.082031 113.8125 195.441406 114.074219 C 194.804688 114.339844 194.152344 114.574219 193.492188 114.773438 C 192.828125 114.976562 192.15625 115.144531 191.480469 115.277344 C 190.800781 115.414062 190.117188 115.515625 189.429688 115.582031 C 188.738281 115.648438 188.046875 115.683594 187.355469 115.683594 C 186.664062 115.683594 185.972656 115.648438 185.285156 115.582031 C 184.597656 115.515625 183.914062 115.414062 183.234375 115.277344 C 182.554688 115.144531 181.886719 114.976562 181.222656 114.773438 C 180.558594 114.574219 179.910156 114.339844 179.269531 114.074219 C 178.628906 113.8125 178.007812 113.515625 177.394531 113.1875 C 176.785156 112.863281 176.191406 112.507812 175.617188 112.125 C 175.042969 111.738281 174.484375 111.328125 173.953125 110.886719 C 173.417969 110.449219 172.902344 109.984375 172.414062 109.496094 C 171.925781 109.007812 171.460938 108.496094 171.023438 107.960938 C 170.582031 107.425781 170.171875 106.871094 169.785156 106.292969 C 169.402344 105.71875 169.046875 105.125 168.722656 104.515625 C 168.394531 103.90625 168.097656 103.28125 167.835938 102.640625 C 167.570312 102.003906 167.335938 101.351562 167.136719 100.691406 C 166.933594 100.027344 166.765625 99.355469 166.632812 98.679688 C 166.496094 98 166.394531 97.316406 166.328125 96.628906 C 166.257812 95.9375 166.226562 95.25 166.226562 94.558594 C 166.226562 93.863281 166.257812 93.175781 166.328125 92.484375 C 166.394531 91.796875 166.496094 91.113281 166.632812 90.433594 C 166.765625 89.757812 166.933594 89.085938 167.136719 88.425781 C 167.335938 87.761719 167.570312 87.109375 167.835938 86.472656 C 168.097656 85.832031 168.394531 85.207031 168.722656 84.597656 C 169.046875 83.988281 169.402344 83.394531 169.785156 82.820312 C 170.171875 82.242188 170.582031 81.6875 171.023438 81.152344 C 171.460938 80.621094 171.925781 80.105469 172.414062 79.617188 C 172.902344 79.128906 173.417969 78.664062 173.953125 78.226562 C 174.484375 77.785156 175.042969 77.375 175.617188 76.992188 C 176.191406 76.605469 176.785156 76.25 177.394531 75.925781 C 178.007812 75.597656 178.628906 75.304688 179.269531 75.039062 C 179.910156 74.773438 180.558594 74.539062 181.222656 74.339844 C 181.886719 74.140625 182.554688 73.972656 183.234375 73.835938 C 183.914062 73.699219 184.597656 73.597656 185.285156 73.53125 C 185.972656 73.464844 186.664062 73.429688 187.355469 73.429688 Z M 187.355469 73.429688 " fill-opacity="1" fill-rule="nonzero"/><path fill="#5ce1e6" d="M 113.222656 103.105469 C 113.726562 103.105469 114.226562 103.15625 114.71875 103.253906 C 115.214844 103.351562 115.695312 103.5 116.160156 103.691406 C 116.628906 103.882812 117.070312 104.121094 117.492188 104.402344 C 117.910156 104.683594 118.296875 105 118.65625 105.355469 C 119.011719 105.714844 119.332031 106.101562 119.609375 106.519531 C 119.890625 106.941406 120.128906 107.382812 120.320312 107.851562 C 120.515625 108.316406 120.660156 108.796875 120.757812 109.292969 C 120.855469 109.785156 120.90625 110.285156 120.90625 110.789062 C 120.90625 111.292969 120.855469 111.792969 120.757812 112.289062 C 120.660156 112.785156 120.515625 113.265625 120.320312 113.730469 C 120.128906 114.195312 119.890625 114.640625 119.609375 115.058594 C 119.332031 115.480469 119.011719 115.867188 118.65625 116.222656 C 118.296875 116.582031 117.910156 116.898438 117.492188 117.179688 C 117.070312 117.460938 116.628906 117.695312 116.160156 117.890625 C 115.695312 118.082031 115.214844 118.226562 114.71875 118.328125 C 114.226562 118.425781 113.726562 118.472656 113.222656 118.472656 C 112.714844 118.472656 112.214844 118.425781 111.722656 118.328125 C 111.226562 118.226562 110.746094 118.082031 110.28125 117.890625 C 109.8125 117.695312 109.371094 117.460938 108.953125 117.179688 C 108.53125 116.898438 108.144531 116.582031 107.785156 116.222656 C 107.429688 115.867188 107.109375 115.480469 106.832031 115.058594 C 106.550781 114.640625 106.3125 114.195312 106.121094 113.730469 C 105.925781 113.265625 105.78125 112.785156 105.683594 112.289062 C 105.585938 111.792969 105.535156 111.292969 105.535156 110.789062 C 105.535156 110.285156 105.585938 109.785156 105.683594 109.292969 C 105.78125 108.796875 105.925781 108.316406 106.121094 107.851562 C 106.3125 107.382812 106.550781 106.941406 106.832031 106.519531 C 107.109375 106.101562 107.429688 105.714844 107.785156 105.355469 C 108.144531 105 108.53125 104.683594 108.953125 104.402344 C 109.371094 104.121094 109.8125 103.882812 110.28125 103.691406 C 110.746094 103.5 111.226562 103.351562 111.722656 103.253906 C 112.214844 103.15625 112.714844 103.105469 113.222656 103.105469 Z M 113.222656 103.105469 " fill-opacity="1" fill-rule="nonzero"/><g clip-path="url(#id2)"><path fill="#5ce1e6" d="M 221.296875 14.941406 C 221.804688 14.941406 222.304688 14.988281 222.796875 15.085938 C 223.292969 15.1875 223.773438 15.332031 224.238281 15.523438 C 224.707031 15.71875 225.148438 15.953125 225.566406 16.234375 C 225.988281 16.515625 226.375 16.832031 226.734375 17.191406 C 227.089844 17.546875 227.40625 17.933594 227.6875 18.355469 C 227.96875 18.773438 228.207031 19.214844 228.398438 19.683594 C 228.589844 20.148438 228.738281 20.628906 228.835938 21.125 C 228.933594 21.617188 228.984375 22.117188 228.984375 22.625 C 228.984375 23.128906 228.933594 23.628906 228.835938 24.121094 C 228.738281 24.617188 228.589844 25.097656 228.398438 25.5625 C 228.207031 26.03125 227.96875 26.472656 227.6875 26.890625 C 227.40625 27.3125 227.089844 27.699219 226.734375 28.054688 C 226.375 28.414062 225.988281 28.730469 225.566406 29.011719 C 225.148438 29.292969 224.707031 29.527344 224.238281 29.722656 C 223.773438 29.914062 223.292969 30.0625 222.796875 30.160156 C 222.304688 30.257812 221.804688 30.308594 221.296875 30.308594 C 220.792969 30.308594 220.292969 30.257812 219.800781 30.160156 C 219.304688 30.0625 218.824219 29.914062 218.359375 29.722656 C 217.890625 29.527344 217.449219 29.292969 217.027344 29.011719 C 216.609375 28.730469 216.222656 28.414062 215.863281 28.054688 C 215.507812 27.699219 215.1875 27.3125 214.910156 26.890625 C 214.628906 26.472656 214.390625 26.03125 214.199219 25.5625 C 214.003906 25.097656 213.859375 24.617188 213.761719 24.121094 C 213.664062 23.628906 213.613281 23.128906 213.613281 22.625 C 213.613281 22.117188 213.664062 21.617188 213.761719 21.125 C 213.859375 20.628906 214.003906 20.148438 214.199219 19.683594 C 214.390625 19.214844 214.628906 18.773438 214.910156 18.355469 C 215.1875 17.933594 215.507812 17.546875 215.863281 17.191406 C 216.222656 16.832031 216.609375 16.515625 217.027344 16.234375 C 217.449219 15.953125 217.890625 15.71875 218.359375 15.523438 C 218.824219 15.332031 219.304688 15.1875 219.800781 15.085938 C 220.292969 14.988281 220.792969 14.941406 221.296875 14.941406 Z M 221.296875 14.941406 " fill-opacity="1" fill-rule="nonzero"/></g><path fill="#5ce1e6" d="M 240.363281 142.933594 C 240.871094 142.933594 241.367188 142.984375 241.863281 143.082031 C 242.359375 143.179688 242.839844 143.328125 243.304688 143.519531 C 243.773438 143.710938 244.214844 143.949219 244.632812 144.230469 C 245.054688 144.511719 245.441406 144.828125 245.800781 145.183594 C 246.15625 145.542969 246.472656 145.929688 246.753906 146.347656 C 247.035156 146.769531 247.273438 147.210938 247.464844 147.679688 C 247.65625 148.144531 247.804688 148.625 247.902344 149.121094 C 248 149.613281 248.050781 150.113281 248.050781 150.617188 C 248.050781 151.121094 248 151.621094 247.902344 152.117188 C 247.804688 152.613281 247.65625 153.09375 247.464844 153.558594 C 247.273438 154.023438 247.035156 154.46875 246.753906 154.886719 C 246.472656 155.308594 246.15625 155.695312 245.800781 156.050781 C 245.441406 156.410156 245.054688 156.726562 244.632812 157.007812 C 244.214844 157.289062 243.773438 157.523438 243.304688 157.71875 C 242.839844 157.910156 242.359375 158.054688 241.863281 158.15625 C 241.367188 158.253906 240.871094 158.300781 240.363281 158.300781 C 239.859375 158.300781 239.359375 158.253906 238.867188 158.15625 C 238.371094 158.054688 237.890625 157.910156 237.421875 157.71875 C 236.957031 157.523438 236.515625 157.289062 236.09375 157.007812 C 235.675781 156.726562 235.289062 156.410156 234.929688 156.050781 C 234.574219 155.695312 234.253906 155.308594 233.976562 154.886719 C 233.695312 154.46875 233.457031 154.023438 233.265625 153.558594 C 233.070312 153.09375 232.925781 152.613281 232.828125 152.117188 C 232.730469 151.621094 232.679688 151.121094 232.679688 150.617188 C 232.679688 150.113281 232.730469 149.613281 232.828125 149.121094 C 232.925781 148.625 233.070312 148.144531 233.265625 147.679688 C 233.457031 147.210938 233.695312 146.769531 233.976562 146.347656 C 234.253906 145.929688 234.574219 145.542969 234.929688 145.183594 C 235.289062 144.828125 235.675781 144.511719 236.09375 144.230469 C 236.515625 143.949219 236.957031 143.710938 237.421875 143.519531 C 237.890625 143.328125 238.371094 143.179688 238.867188 143.082031 C 239.359375 142.984375 239.859375 142.933594 240.363281 142.933594 Z M 240.363281 142.933594 " fill-opacity="1" fill-rule="nonzero"/><g fill="#03989e" fill-opacity="1"><g transform="translate(3.433598, 209.073898)"><g><path d="M 19.765625 0 L 18.046875 0 L 0.546875 -25.90625 L 4.421875 -25.90625 L 18.890625 -4.484375 L 33.390625 -25.90625 L 37.265625 -25.90625 Z M 19.765625 0 "/></g></g></g><g fill="#03989e" fill-opacity="1"><g transform="translate(41.242598, 209.073898)"><g><path d="M 6.828125 0 L 6.828125 -25.90625 L 3.609375 -25.90625 L 3.609375 0 Z M 6.828125 0 "/></g></g></g><g fill="#03989e" fill-opacity="1"><g transform="translate(51.683878, 209.073898)"><g><path d="M 34.6875 0 L 32.5 0 L 6.828125 -20.921875 L 6.828125 0 L 3.609375 0 L 3.609375 -25.90625 L 5.796875 -25.90625 L 31.46875 -4.984375 L 31.46875 -25.90625 L 34.6875 -25.90625 Z M 34.6875 0 "/></g></g></g><g fill="#03989e" fill-opacity="1"><g transform="translate(89.980613, 209.073898)"><g><path d="M 6.828125 0 L 3.609375 0 L 3.609375 -25.90625 L 6.828125 -25.90625 Z M 6.6875 -27.703125 L 3.765625 -29.03125 L 6.34375 -34.734375 L 9.265625 -33.421875 Z M 6.6875 -27.703125 "/></g></g></g><g fill="#03989e" fill-opacity="1"><g transform="translate(100.421892, 209.073898)"><g><path d="M 25.75 0 C 27.957031 0 29.847656 -0.785156 31.421875 -2.359375 C 32.992188 -3.929688 33.78125 -5.828125 33.78125 -8.046875 L 30.5625 -8.046875 C 30.5625 -6.710938 30.09375 -5.570312 29.15625 -4.625 C 28.21875 -3.6875 27.082031 -3.21875 25.75 -3.21875 L 10.75 -3.21875 C 9.425781 -3.21875 8.289062 -3.6875 7.34375 -4.625 C 6.394531 -5.570312 5.921875 -6.710938 5.921875 -8.046875 L 5.921875 -17.890625 C 5.921875 -19.210938 6.394531 -20.34375 7.34375 -21.28125 C 8.289062 -22.226562 9.425781 -22.703125 10.75 -22.703125 L 25.75 -22.703125 C 27.082031 -22.703125 28.21875 -22.226562 29.15625 -21.28125 C 30.09375 -20.34375 30.5625 -19.210938 30.5625 -17.890625 L 33.78125 -17.890625 C 33.78125 -20.097656 32.992188 -21.988281 31.421875 -23.5625 C 29.847656 -25.132812 27.957031 -25.921875 25.75 -25.921875 L 10.75 -25.921875 C 8.53125 -25.921875 6.632812 -25.132812 5.0625 -23.5625 C 3.488281 -21.988281 2.703125 -20.097656 2.703125 -17.890625 L 2.703125 -8.046875 C 2.703125 -5.828125 3.488281 -3.929688 5.0625 -2.359375 C 6.632812 -0.785156 8.53125 0 10.75 0 Z M 25.75 0 "/></g></g></g><g fill="#03989e" fill-opacity="1"><g transform="translate(136.912178, 209.073898)"><g><path d="M 6.828125 0 L 6.828125 -25.90625 L 3.609375 -25.90625 L 3.609375 0 Z M 6.828125 0 "/></g></g></g><g fill="#03989e" fill-opacity="1"><g transform="translate(147.353458, 209.073898)"><g><path d="M 25.75 0 C 27.957031 0 29.847656 -0.785156 31.421875 -2.359375 C 32.992188 -3.929688 33.78125 -5.828125 33.78125 -8.046875 L 33.78125 -25.921875 L 30.5625 -25.921875 L 30.5625 -8.046875 C 30.5625 -6.710938 30.09375 -5.570312 29.15625 -4.625 C 28.21875 -3.6875 27.082031 -3.21875 25.75 -3.21875 L 10.75 -3.21875 C 9.425781 -3.21875 8.289062 -3.6875 7.34375 -4.625 C 6.394531 -5.570312 5.921875 -6.710938 5.921875 -8.046875 L 5.921875 -25.921875 L 2.703125 -25.921875 L 2.703125 -8.046875 C 2.703125 -5.828125 3.488281 -3.929688 5.0625 -2.359375 C 6.632812 -0.785156 8.53125 0 10.75 0 Z M 25.75 0 "/></g></g></g><g fill="#03989e" fill-opacity="1"><g transform="translate(183.843743, 209.073898)"><g><path d="M 27.890625 0 L 8.59375 0 C 6.96875 0 5.578125 -0.570312 4.421875 -1.71875 C 3.273438 -2.875 2.703125 -4.265625 2.703125 -5.890625 L 5.921875 -5.890625 C 5.921875 -5.148438 6.179688 -4.519531 6.703125 -4 C 7.234375 -3.476562 7.863281 -3.21875 8.59375 -3.21875 L 27.890625 -3.21875 C 28.628906 -3.21875 29.257812 -3.476562 29.78125 -4 C 30.300781 -4.519531 30.5625 -5.148438 30.5625 -5.890625 L 30.5625 -8.671875 C 30.5625 -9.410156 30.300781 -10.039062 29.78125 -10.5625 C 29.257812 -11.082031 28.628906 -11.34375 27.890625 -11.34375 L 8.59375 -11.34375 C 6.96875 -11.34375 5.578125 -11.914062 4.421875 -13.0625 C 3.273438 -14.21875 2.703125 -15.609375 2.703125 -17.234375 L 2.703125 -20.015625 C 2.703125 -21.640625 3.273438 -23.023438 4.421875 -24.171875 C 5.578125 -25.328125 6.96875 -25.90625 8.59375 -25.90625 L 27.890625 -25.90625 C 29.515625 -25.90625 30.898438 -25.328125 32.046875 -24.171875 C 33.203125 -23.023438 33.78125 -21.640625 33.78125 -20.015625 L 30.5625 -20.015625 C 30.5625 -20.753906 30.300781 -21.382812 29.78125 -21.90625 C 29.257812 -22.425781 28.628906 -22.6875 27.890625 -22.6875 L 8.59375 -22.6875 C 7.863281 -22.6875 7.234375 -22.425781 6.703125 -21.90625 C 6.179688 -21.382812 5.921875 -20.753906 5.921875 -20.015625 L 5.921875 -17.234375 C 5.921875 -16.503906 6.179688 -15.875 6.703125 -15.34375 C 7.234375 -14.820312 7.863281 -14.5625 8.59375 -14.5625 L 27.890625 -14.5625 C 29.515625 -14.5625 30.898438 -13.984375 32.046875 -12.828125 C 33.203125 -11.679688 33.78125 -10.296875 33.78125 -8.671875 L 33.78125 -5.890625 C 33.78125 -4.265625 33.203125 -2.875 32.046875 -1.71875 C 30.898438 -0.570312 29.515625 0 27.890625 0 Z M 27.890625 0 "/></g></g></g><g fill="#03989e" fill-opacity="1"><g transform="translate(220.334028, 209.073898)"><g/></g></g><g fill="#03989e" fill-opacity="1"><g transform="translate(229.510793, 209.073898)"><g><path d="M 27.78125 0 L 27.78125 -3.21875 L 6.828125 -3.21875 L 6.828125 -25.921875 L 3.609375 -25.921875 L 3.609375 0 Z M 27.78125 0 "/></g></g></g><g fill="#03989e" fill-opacity="1"><g transform="translate(258.558506, 209.073898)"><g><path d="M 37.265625 0 L 33.390625 0 L 29.4375 -5.859375 L 8.359375 -5.859375 L 4.421875 0 L 0.546875 0 L 18.046875 -25.90625 L 19.75 -25.90625 Z M 27.265625 -9.0625 L 18.890625 -21.421875 L 10.546875 -9.0625 Z M 27.265625 -9.0625 "/></g></g></g><g fill="#03989e" fill-opacity="1"><g transform="translate(296.367493, 209.073898)"><g><path d="M 34.6875 0 L 31.46875 0 L 31.46875 -7.0625 C 31.46875 -7.800781 31.207031 -8.429688 30.6875 -8.953125 C 30.164062 -9.472656 29.535156 -9.734375 28.796875 -9.734375 L 6.828125 -9.734375 L 6.828125 0 L 3.609375 0 L 3.609375 -25.90625 L 28.796875 -25.90625 C 30.421875 -25.90625 31.804688 -25.328125 32.953125 -24.171875 C 34.109375 -23.023438 34.6875 -21.640625 34.6875 -20.015625 L 34.6875 -15.625 C 34.6875 -13.9375 34.070312 -12.507812 32.84375 -11.34375 C 34.070312 -10.175781 34.6875 -8.75 34.6875 -7.0625 Z M 28.796875 -12.953125 C 29.535156 -12.953125 30.164062 -13.210938 30.6875 -13.734375 C 31.207031 -14.265625 31.46875 -14.894531 31.46875 -15.625 L 31.46875 -20.015625 C 31.46875 -20.753906 31.207031 -21.382812 30.6875 -21.90625 C 30.164062 -22.425781 29.535156 -22.6875 28.796875 -22.6875 L 6.828125 -22.6875 L 6.828125 -12.953125 Z M 28.796875 -12.953125 "/></g></g></g><g fill="#03989e" fill-opacity="1"><g transform="translate(333.761015, 209.073898)"><g><path d="M 37.265625 0 L 33.390625 0 L 29.4375 -5.859375 L 8.359375 -5.859375 L 4.421875 0 L 0.546875 0 L 18.046875 -25.90625 L 19.75 -25.90625 Z M 27.265625 -9.0625 L 18.890625 -21.421875 L 10.546875 -9.0625 Z M 27.265625 -9.0625 "/></g></g></g><g fill="#005162" fill-opacity="1"><g transform="translate(19.064478, 242.125297)"><g><path d="M 15.203125 0 L 1.65625 0 L 1.65625 -11.90625 L 15.203125 -11.90625 L 15.203125 -10.4375 L 3.140625 -10.4375 L 3.140625 -6.6875 L 13.796875 -6.6875 L 13.796875 -5.21875 L 3.140625 -5.21875 L 3.140625 -1.484375 L 15.203125 -1.484375 Z M 15.203125 0 "/></g></g></g><g fill="#005162" fill-opacity="1"><g transform="translate(35.500767, 242.125297)"><g><path d="M 15.9375 0 L 14.9375 0 L 3.140625 -9.609375 L 3.140625 0 L 1.65625 0 L 1.65625 -11.90625 L 2.671875 -11.90625 L 14.453125 -2.296875 L 14.453125 -11.90625 L 15.9375 -11.90625 Z M 15.9375 0 "/></g></g></g><g fill="#005162" fill-opacity="1"><g transform="translate(53.090335, 242.125297)"><g><path d="M 11.828125 0 C 12.816406 0 13.6875 -0.359375 14.4375 -1.078125 C 15.144531 -1.804688 15.503906 -2.675781 15.515625 -3.6875 L 15.515625 -4.96875 C 15.515625 -5.289062 15.398438 -5.5625 15.171875 -5.78125 C 14.953125 -6.007812 14.679688 -6.125 14.359375 -6.125 L 8.390625 -6.125 L 8.390625 -4.65625 L 14.046875 -4.65625 L 14.046875 -3.6875 C 14.046875 -3.101562 13.828125 -2.582031 13.390625 -2.125 C 12.941406 -1.695312 12.421875 -1.484375 11.828125 -1.484375 L 4.9375 -1.484375 C 4.332031 -1.484375 3.8125 -1.695312 3.375 -2.125 C 2.9375 -2.5625 2.71875 -3.082031 2.71875 -3.6875 L 2.71875 -8.21875 C 2.71875 -8.820312 2.9375 -9.34375 3.375 -9.78125 C 3.8125 -10.21875 4.332031 -10.4375 4.9375 -10.4375 L 11.828125 -10.4375 C 12.441406 -10.4375 12.960938 -10.21875 13.390625 -9.78125 C 13.828125 -9.34375 14.046875 -8.820312 14.046875 -8.21875 L 15.515625 -8.21875 C 15.515625 -9.238281 15.15625 -10.109375 14.4375 -10.828125 C 13.71875 -11.546875 12.847656 -11.90625 11.828125 -11.90625 L 4.9375 -11.90625 C 3.914062 -11.90625 3.046875 -11.546875 2.328125 -10.828125 C 1.609375 -10.109375 1.25 -9.238281 1.25 -8.21875 L 1.25 -3.6875 C 1.25 -2.675781 1.609375 -1.804688 2.328125 -1.078125 C 3.046875 -0.359375 3.914062 0 4.9375 0 Z M 11.828125 0 "/></g></g></g><g fill="#005162" fill-opacity="1"><g transform="translate(69.850207, 242.125297)"><g><path d="M 15.203125 0 L 1.65625 0 L 1.65625 -11.90625 L 15.203125 -11.90625 L 15.203125 -10.4375 L 3.140625 -10.4375 L 3.140625 -6.6875 L 13.796875 -6.6875 L 13.796875 -5.21875 L 3.140625 -5.21875 L 3.140625 -1.484375 L 15.203125 -1.484375 Z M 15.203125 0 "/></g></g></g><g fill="#005162" fill-opacity="1"><g transform="translate(86.286496, 242.125297)"><g><path d="M 15.9375 0 L 14.9375 0 L 3.140625 -9.609375 L 3.140625 0 L 1.65625 0 L 1.65625 -11.90625 L 2.671875 -11.90625 L 14.453125 -2.296875 L 14.453125 -11.90625 L 15.9375 -11.90625 Z M 15.9375 0 "/></g></g></g><g fill="#005162" fill-opacity="1"><g transform="translate(103.876064, 242.125297)"><g><path d="M 15.546875 0 L 14.0625 0 L 14.0625 -5.21875 L 3.140625 -5.21875 L 3.140625 0 L 1.65625 0 L 1.65625 -11.90625 L 3.140625 -11.90625 L 3.140625 -6.6875 L 14.0625 -6.6875 L 14.0625 -11.90625 L 15.546875 -11.90625 Z M 15.546875 0 "/></g></g></g><g fill="#005162" fill-opacity="1"><g transform="translate(121.075675, 242.125297)"><g><path d="M 15.203125 0 L 1.65625 0 L 1.65625 -11.90625 L 15.203125 -11.90625 L 15.203125 -10.4375 L 3.140625 -10.4375 L 3.140625 -6.6875 L 13.796875 -6.6875 L 13.796875 -5.21875 L 3.140625 -5.21875 L 3.140625 -1.484375 L 15.203125 -1.484375 Z M 15.203125 0 "/></g></g></g><g fill="#005162" fill-opacity="1"><g transform="translate(137.511965, 242.125297)"><g><path d="M 3.140625 0 L 3.140625 -11.90625 L 1.65625 -11.90625 L 1.65625 0 Z M 3.140625 0 "/></g></g></g><g fill="#005162" fill-opacity="1"><g transform="translate(142.307611, 242.125297)"><g><path d="M 15.9375 0 L 14.453125 0 L 14.453125 -3.25 C 14.453125 -3.582031 14.332031 -3.867188 14.09375 -4.109375 C 13.851562 -4.347656 13.566406 -4.46875 13.234375 -4.46875 L 3.140625 -4.46875 L 3.140625 0 L 1.65625 0 L 1.65625 -11.90625 L 13.234375 -11.90625 C 13.984375 -11.90625 14.617188 -11.640625 15.140625 -11.109375 C 15.671875 -10.578125 15.9375 -9.941406 15.9375 -9.203125 L 15.9375 -7.1875 C 15.9375 -6.40625 15.65625 -5.75 15.09375 -5.21875 C 15.65625 -4.675781 15.9375 -4.019531 15.9375 -3.25 Z M 13.234375 -5.953125 C 13.566406 -5.953125 13.851562 -6.070312 14.09375 -6.3125 C 14.332031 -6.550781 14.453125 -6.84375 14.453125 -7.1875 L 14.453125 -9.203125 C 14.453125 -9.535156 14.332031 -9.820312 14.09375 -10.0625 C 13.851562 -10.300781 13.566406 -10.421875 13.234375 -10.421875 L 3.140625 -10.421875 L 3.140625 -5.953125 Z M 13.234375 -5.953125 "/></g></g></g><g fill="#005162" fill-opacity="1"><g transform="translate(159.482331, 242.125297)"><g><path d="M 11.828125 0 C 12.847656 0 13.71875 -0.359375 14.4375 -1.078125 C 15.15625 -1.804688 15.515625 -2.675781 15.515625 -3.6875 L 15.515625 -8.21875 C 15.515625 -9.238281 15.15625 -10.109375 14.4375 -10.828125 C 13.71875 -11.546875 12.847656 -11.90625 11.828125 -11.90625 L 4.9375 -11.90625 C 3.914062 -11.90625 3.046875 -11.546875 2.328125 -10.828125 C 1.609375 -10.109375 1.25 -9.238281 1.25 -8.21875 L 1.25 -3.6875 C 1.25 -2.675781 1.609375 -1.804688 2.328125 -1.078125 C 3.046875 -0.359375 3.914062 0 4.9375 0 Z M 11.828125 -1.484375 L 4.9375 -1.484375 C 4.332031 -1.484375 3.8125 -1.695312 3.375 -2.125 C 2.9375 -2.5625 2.71875 -3.082031 2.71875 -3.6875 L 2.71875 -8.21875 C 2.71875 -8.820312 2.9375 -9.34375 3.375 -9.78125 C 3.8125 -10.21875 4.332031 -10.4375 4.9375 -10.4375 L 11.828125 -10.4375 C 12.441406 -10.4375 12.960938 -10.21875 13.390625 -9.78125 C 13.828125 -9.34375 14.046875 -8.820312 14.046875 -8.21875 L 14.046875 -3.6875 C 14.046875 -3.082031 13.828125 -2.5625 13.390625 -2.125 C 12.960938 -1.695312 12.441406 -1.484375 11.828125 -1.484375 Z M 11.828125 -1.484375 "/></g></g></g><g fill="#005162" fill-opacity="1"><g transform="translate(176.242203, 242.125297)"><g/></g></g><g fill="#005162" fill-opacity="1"><g transform="translate(180.457061, 242.125297)"><g><path d="M 12.25 0 C 13.257812 0 14.125 -0.359375 14.84375 -1.078125 C 15.570312 -1.804688 15.9375 -2.675781 15.9375 -3.6875 L 15.9375 -8.21875 C 15.9375 -9.238281 15.570312 -10.109375 14.84375 -10.828125 C 14.125 -11.546875 13.257812 -11.90625 12.25 -11.90625 L 1.65625 -11.90625 L 1.65625 0 Z M 12.25 -1.484375 L 3.140625 -1.484375 L 3.140625 -10.4375 L 12.25 -10.4375 C 12.863281 -10.4375 13.382812 -10.21875 13.8125 -9.78125 C 14.238281 -9.34375 14.453125 -8.820312 14.453125 -8.21875 L 14.453125 -3.6875 C 14.453125 -3.082031 14.238281 -2.5625 13.8125 -2.125 C 13.382812 -1.695312 12.863281 -1.484375 12.25 -1.484375 Z M 12.25 -1.484375 "/></g></g></g><g fill="#005162" fill-opacity="1"><g transform="translate(197.631781, 242.125297)"><g><path d="M 15.203125 0 L 1.65625 0 L 1.65625 -11.90625 L 15.203125 -11.90625 L 15.203125 -10.4375 L 3.140625 -10.4375 L 3.140625 -6.6875 L 13.796875 -6.6875 L 13.796875 -5.21875 L 3.140625 -5.21875 L 3.140625 -1.484375 L 15.203125 -1.484375 Z M 15.203125 0 "/></g></g></g><g fill="#005162" fill-opacity="1"><g transform="translate(214.068083, 242.125297)"><g/></g></g><g fill="#005162" fill-opacity="1"><g transform="translate(218.282941, 242.125297)"><g><path d="M 12.8125 0 L 3.953125 0 C 3.203125 0 2.5625 -0.257812 2.03125 -0.78125 C 1.507812 -1.3125 1.25 -1.953125 1.25 -2.703125 L 2.71875 -2.703125 C 2.71875 -2.367188 2.835938 -2.082031 3.078125 -1.84375 C 3.316406 -1.601562 3.609375 -1.484375 3.953125 -1.484375 L 12.8125 -1.484375 C 13.15625 -1.484375 13.445312 -1.601562 13.6875 -1.84375 C 13.925781 -2.082031 14.046875 -2.367188 14.046875 -2.703125 L 14.046875 -3.984375 C 14.046875 -4.316406 13.925781 -4.601562 13.6875 -4.84375 C 13.445312 -5.09375 13.15625 -5.21875 12.8125 -5.21875 L 3.953125 -5.21875 C 3.203125 -5.21875 2.5625 -5.476562 2.03125 -6 C 1.507812 -6.53125 1.25 -7.171875 1.25 -7.921875 L 1.25 -9.203125 C 1.25 -9.941406 1.507812 -10.578125 2.03125 -11.109375 C 2.5625 -11.640625 3.203125 -11.90625 3.953125 -11.90625 L 12.8125 -11.90625 C 13.5625 -11.90625 14.195312 -11.640625 14.71875 -11.109375 C 15.25 -10.578125 15.515625 -9.941406 15.515625 -9.203125 L 14.046875 -9.203125 C 14.046875 -9.535156 13.925781 -9.820312 13.6875 -10.0625 C 13.445312 -10.300781 13.15625 -10.421875 12.8125 -10.421875 L 3.953125 -10.421875 C 3.609375 -10.421875 3.316406 -10.300781 3.078125 -10.0625 C 2.835938 -9.820312 2.71875 -9.535156 2.71875 -9.203125 L 2.71875 -7.921875 C 2.71875 -7.578125 2.835938 -7.285156 3.078125 -7.046875 C 3.316406 -6.804688 3.609375 -6.6875 3.953125 -6.6875 L 12.8125 -6.6875 C 13.5625 -6.6875 14.195312 -6.421875 14.71875 -5.890625 C 15.25 -5.367188 15.515625 -4.734375 15.515625 -3.984375 L 15.515625 -2.703125 C 15.515625 -1.953125 15.25 -1.3125 14.71875 -0.78125 C 14.195312 -0.257812 13.5625 0 12.8125 0 Z M 12.8125 0 "/></g></g></g><g fill="#005162" fill-opacity="1"><g transform="translate(235.042813, 242.125297)"><g><path d="M 11.828125 0 C 12.847656 0 13.71875 -0.359375 14.4375 -1.078125 C 15.15625 -1.804688 15.515625 -2.675781 15.515625 -3.6875 L 15.515625 -8.21875 C 15.515625 -9.238281 15.15625 -10.109375 14.4375 -10.828125 C 13.71875 -11.546875 12.847656 -11.90625 11.828125 -11.90625 L 4.9375 -11.90625 C 3.914062 -11.90625 3.046875 -11.546875 2.328125 -10.828125 C 1.609375 -10.109375 1.25 -9.238281 1.25 -8.21875 L 1.25 -3.6875 C 1.25 -2.675781 1.609375 -1.804688 2.328125 -1.078125 C 3.046875 -0.359375 3.914062 0 4.9375 0 Z M 11.828125 -1.484375 L 4.9375 -1.484375 C 4.332031 -1.484375 3.8125 -1.695312 3.375 -2.125 C 2.9375 -2.5625 2.71875 -3.082031 2.71875 -3.6875 L 2.71875 -8.21875 C 2.71875 -8.820312 2.9375 -9.34375 3.375 -9.78125 C 3.8125 -10.21875 4.332031 -10.4375 4.9375 -10.4375 L 11.828125 -10.4375 C 12.441406 -10.4375 12.960938 -10.21875 13.390625 -9.78125 C 13.828125 -9.34375 14.046875 -8.820312 14.046875 -8.21875 L 14.046875 -3.6875 C 14.046875 -3.082031 13.828125 -2.5625 13.390625 -2.125 C 12.960938 -1.695312 12.441406 -1.484375 11.828125 -1.484375 Z M 11.828125 -1.484375 "/></g></g></g><g fill="#005162" fill-opacity="1"><g transform="translate(251.802685, 242.125297)"><g><path d="M 3.140625 0 L 1.65625 0 L 1.65625 -11.90625 L 15.203125 -11.90625 L 15.203125 -10.421875 L 3.140625 -10.421875 L 3.140625 -6.6875 L 13.796875 -6.6875 L 13.796875 -5.21875 L 3.140625 -5.21875 Z M 3.140625 0 "/></g></g></g><g fill="#005162" fill-opacity="1"><g transform="translate(268.238963, 242.125297)"><g><path d="M 7.59375 0 L 6.109375 0 L 6.109375 -10.421875 L 0.25 -10.421875 L 0.25 -11.90625 L 13.453125 -11.90625 L 13.453125 -10.421875 L 7.59375 -10.421875 Z M 7.59375 0 "/></g></g></g><g fill="#005162" fill-opacity="1"><g transform="translate(281.928956, 242.125297)"><g><path d="M 17.203125 0 L 16.28125 0 L 11.515625 -9.515625 L 6.75 0 L 5.8125 0 L 0.25 -11.90625 L 1.875 -11.90625 L 6.3125 -2.4375 L 11.0625 -11.90625 L 11.96875 -11.90625 L 16.71875 -2.4375 L 21.15625 -11.90625 L 22.78125 -11.90625 Z M 17.203125 0 "/></g></g></g><g fill="#005162" fill-opacity="1"><g transform="translate(304.953026, 242.125297)"><g><path d="M 17.125 0 L 15.34375 0 L 13.515625 -2.6875 L 3.84375 -2.6875 L 2.03125 0 L 0.25 0 L 8.296875 -11.90625 L 9.078125 -11.90625 Z M 12.53125 -4.171875 L 8.6875 -9.84375 L 4.84375 -4.171875 Z M 12.53125 -4.171875 "/></g></g></g><g fill="#005162" fill-opacity="1"><g transform="translate(322.318564, 242.125297)"><g><path d="M 15.9375 0 L 14.453125 0 L 14.453125 -3.25 C 14.453125 -3.582031 14.332031 -3.867188 14.09375 -4.109375 C 13.851562 -4.347656 13.566406 -4.46875 13.234375 -4.46875 L 3.140625 -4.46875 L 3.140625 0 L 1.65625 0 L 1.65625 -11.90625 L 13.234375 -11.90625 C 13.984375 -11.90625 14.617188 -11.640625 15.140625 -11.109375 C 15.671875 -10.578125 15.9375 -9.941406 15.9375 -9.203125 L 15.9375 -7.1875 C 15.9375 -6.40625 15.65625 -5.75 15.09375 -5.21875 C 15.65625 -4.675781 15.9375 -4.019531 15.9375 -3.25 Z M 13.234375 -5.953125 C 13.566406 -5.953125 13.851562 -6.070312 14.09375 -6.3125 C 14.332031 -6.550781 14.453125 -6.84375 14.453125 -7.1875 L 14.453125 -9.203125 C 14.453125 -9.535156 14.332031 -9.820312 14.09375 -10.0625 C 13.851562 -10.300781 13.566406 -10.421875 13.234375 -10.421875 L 3.140625 -10.421875 L 3.140625 -5.953125 Z M 13.234375 -5.953125 "/></g></g></g><g fill="#005162" fill-opacity="1"><g transform="translate(339.493284, 242.125297)"><g><path d="M 15.203125 0 L 1.65625 0 L 1.65625 -11.90625 L 15.203125 -11.90625 L 15.203125 -10.4375 L 3.140625 -10.4375 L 3.140625 -6.6875 L 13.796875 -6.6875 L 13.796875 -5.21875 L 3.140625 -5.21875 L 3.140625 -1.484375 L 15.203125 -1.484375 Z M 15.203125 0 "/></g></g></g></svg>